HIERARCHY
ROOT root
{
	OFFSET 0.000000 0.000000 0.000000
	CHANNELS 6 Xposition Yposition Zposition Zrotation Yrotation Xrotation
	JOINT lhip
	{
		OFFSET 0.058581 -0.082280 -0.017664
		CHANNELS 3 Zrotation Yrotation Xrotation
		JOINT lknee
		{
			OFFSET 0.043451 -0.386469 0.008037
			CHANNELS 3 Zrotation Yrotation Xrotation
			JOINT lankle
			{
				OFFSET -0.014790 -0.426874 -0.037428
				CHANNELS 3 Zrotation Yrotation Xrotation
				JOINT ltoe
				{
					OFFSET 0.041054 -0.060286 0.122042
					CHANNELS 3 Zrotation Yrotation Xrotation
					End Site
					{
						OFFSET 0.000000 0.000000 0.000000
					}
				}
			}
		}
	}
	JOINT rhip
	{
		OFFSET -0.060310 -0.090513 -0.013543
		CHANNELS 3 Zrotation Yrotation Xrotation
		JOINT rknee
		{
			OFFSET -0.043257 -0.383688 -0.004843
			CHANNELS 3 Zrotation Yrotation Xrotation
			JOINT rankle
			{
				OFFSET 0.019056 -0.420046 -0.034562
				CHANNELS 3 Zrotation Yrotation Xrotation
				JOINT rtoe
				{
					OFFSET -0.034840 -0.062106 0.130323
					CHANNELS 3 Zrotation Yrotation Xrotation
					End Site
					{
						OFFSET 0.000000 0.000000 0.000000
					}
				}
			}
		}
	}
	JOINT lowerback
	{
		OFFSET 0.004439 0.124404 -0.038385
		CHANNELS 3 Zrotation Yrotation Xrotation
		JOINT upperback
		{
			OFFSET 0.004488 0.137956 0.026820
			CHANNELS 3 Zrotation Yrotation Xrotation
			JOINT chest
			{
				OFFSET -0.002265 0.056032 0.002855
				CHANNELS 3 Zrotation Yrotation Xrotation
				JOINT lowerneck
				{
					OFFSET -0.013390 0.211636 -0.033468
					CHANNELS 3 Zrotation Yrotation Xrotation
					JOINT upperneck
					{
						OFFSET 0.010113 0.088937 0.050410
						CHANNELS 3 Zrotation Yrotation Xrotation
						End Site
						{
							OFFSET 0.000000 0.000000 0.000000
						}
					}
				}
				JOINT lclavicle
				{
					OFFSET 0.071702 0.114000 -0.018898
					CHANNELS 3 Zrotation Yrotation Xrotation
					JOINT lshoulder
					{
						OFFSET 0.122921 0.045205 -0.019046
						CHANNELS 3 Zrotation Yrotation Xrotation
						JOINT lelbow
						{
							OFFSET 0.255332 -0.015649 -0.022946
							CHANNELS 3 Zrotation Yrotation Xrotation
							JOINT lwrist
							{
								OFFSET 0.265709 0.012698 -0.007375
								CHANNELS 3 Zrotation Yrotation Xrotation
								End Site
								{
									OFFSET 0.000000 0.000000 0.000000
								}
							}
						}
					}
				}
				JOINT rclavicle
				{
					OFFSET -0.082954 0.112472 -0.023707
					CHANNELS 3 Zrotation Yrotation Xrotation
					JOINT rshoulder
					{
						OFFSET -0.113228 0.046853 -0.008472
						CHANNELS 3 Zrotation Yrotation Xrotation
						JOINT relbow
						{
							OFFSET -0.260127 -0.014369 -0.031269
							CHANNELS 3 Zrotation Yrotation Xrotation
							JOINT rwrist
							{
								OFFSET -0.269108 0.006794 -0.006027
								CHANNELS 3 Zrotation Yrotation Xrotation
								End Site
								{
									OFFSET 0.000000 0.000000 0.000000
								}
							}
						}
					}
				}
			}
		}
	}
}
MOTION
Frames: 13
Frame Time: 0.033333
-1.077906 0.597550 1.044953 -92.585680 -2.776843 79.770363 0.829402 -2.247916 -11.689996 -4.708736 5.487510 17.333613 1.763036 14.615088 -9.159453 0.000000 -0.000000 0.000000 0.653991 -4.322534 10.895362 4.019248 2.072566 11.120915 -1.717977 -7.034088 -14.273350 0.000000 -0.000000 0.000000 0.607292 6.272279 6.781182 -2.109472 -2.610283 6.642979 -1.778398 -0.304314 -0.574921 2.849563 -0.962879 -1.459174 3.700065 -3.025260 11.366834 -27.845491 1.016297 3.654665 -54.558429 -3.647269 9.533925 8.561416 -23.566450 4.629710 -12.774583 -12.030749 -1.465676 25.133948 7.187033 4.816134 55.919632 8.271178 14.252876 -9.347131 23.651829 -0.695320 10.629670 7.204159 -5.481839 
-1.095006 0.596991 1.043234 -92.635567 -2.708621 79.926728 0.687409 -1.632138 -12.194109 -4.655649 5.421046 12.090676 1.912563 14.182079 -7.002417 0.000000 -0.000000 0.000000 0.388327 -4.746094 12.194595 4.058699 2.327202 10.818506 -1.200543 -6.782591 -14.840833 0.000000 -0.000000 0.000000 0.827391 6.378228 6.541764 -2.247968 -2.678182 6.684050 -1.700380 -0.143164 -0.559609 2.777369 -1.104469 -1.503101 3.778854 -2.868816 11.465891 -27.885164 1.011523 3.690352 -54.957403 -3.233886 9.668536 8.456620 -22.905198 5.070637 -12.769840 -11.963855 -1.463130 25.033344 7.225705 4.922264 56.278746 8.552591 14.473418 -9.368787 23.680757 -0.603216 10.394198 7.157824 -5.625013 
-1.112547 0.595921 1.041214 -92.750550 -2.562897 80.179685 0.540589 -1.212666 -12.440647 -4.516153 4.872898 7.254375 1.971495 13.733473 -5.526935 0.000000 -0.000000 0.000000 0.133345 -5.123475 13.397367 4.144133 2.615632 10.578710 -0.616792 -6.468838 -15.323820 0.000000 -0.000000 0.000000 1.137300 6.457867 6.194206 -2.368698 -2.737663 6.677637 -1.665113 -0.076698 -0.484837 2.708901 -1.259534 -1.640358 3.833024 -2.681383 11.547295 -27.950243 1.128781 3.678594 -55.303520 -2.796234 9.758906 8.371171 -22.388138 5.518772 -12.681877 -11.878846 -1.542987 24.955578 7.146878 5.053184 56.648234 8.762876 14.739689 -9.323884 23.899478 -0.395338 10.148821 7.145504 -5.847707 
-1.130506 0.594365 1.039047 -93.008241 -2.330433 80.500947 0.488168 -0.935699 -12.418008 -4.253285 3.899236 3.117794 1.952750 13.330771 -4.935318 0.000000 -0.000000 0.000000 -0.137312 -5.406550 14.506555 4.292179 3.031727 10.433943 0.137405 -6.062827 -15.694990 0.000000 -0.000000 0.000000 1.523851 6.509896 5.804850 -2.434182 -2.738929 6.630167 -1.653994 0.017950 -0.461507 2.619925 -1.473640 -1.888556 3.823509 -2.499811 11.803992 -28.053776 1.277417 3.659247 -55.637096 -2.367544 9.799856 8.327472 -21.911593 5.896062 -12.419619 -11.768220 -1.748974 24.872113 6.997005 5.242936 56.974076 8.847443 14.984052 -9.186188 24.201286 -0.063741 9.902553 7.153347 -6.115635 
-1.149055 0.592327 1.037015 -93.440115 -2.035505 80.880666 0.581059 -0.661116 -12.143156 -4.051182 3.095746 -0.024397 1.900938 13.006821 -4.633059 0.000000 -0.000000 0.000000 -0.460992 -5.570315 15.548471 4.484374 3.551028 10.363082 1.028688 -5.498010 -15.833114 0.000000 -0.000000 0.000000 1.891013 6.545053 5.346121 -2.426740 -2.687418 6.610536 -1.618201 0.186412 -0.482589 2.514473 -1.591339 -2.000395 3.859050 -2.314076 11.794427 -28.159781 1.385669 3.646246 -56.004702 -1.955084 9.751435 8.361282 -21.459136 6.137532 -12.215484 -11.663416 -1.909516 24.767356 6.871298 5.439605 57.245880 8.793029 15.139397 -9.008600 24.428025 0.326095 9.724719 7.137073 -6.237631 
-1.168503 0.589900 1.035299 -94.135478 -1.735887 81.359161 0.774101 -0.390883 -11.652086 -3.978319 2.845014 -1.916322 1.884656 12.822651 -4.370191 0.000000 -0.000000 0.000000 -0.886286 -5.655087 16.308954 4.684409 4.153826 10.646959 1.942771 -4.675114 -15.776932 0.000000 -0.000000 0.000000 2.160667 6.674075 4.649890 -2.355950 -2.580076 6.720098 -1.571515 0.369727 -0.585498 2.518588 -1.596658 -2.001186 3.828336 -2.177135 11.761889 -28.210821 1.515187 3.682939 -56.359689 -1.582792 9.631589 8.386841 -21.024491 6.318666 -12.122628 -11.605462 -1.939895 24.724424 6.768487 5.712938 57.464100 8.733486 15.205181 -8.863057 24.351173 0.591507 9.604947 7.075236 -6.146356 
-1.189264 0.587011 1.033911 -95.049037 -1.470938 81.903459 0.984820 -0.231472 -10.950896 -3.983748 2.975617 -2.392002 1.919657 12.822402 -4.109299 0.000000 -0.000000 0.000000 -1.310356 -5.535669 16.865350 4.794482 4.712057 11.172732 2.776087 -3.890060 -15.585530 0.000000 -0.000000 0.000000 2.276446 6.825795 3.713530 -2.234782 -2.428330 6.891173 -1.526098 0.502833 -0.710340 2.662249 -1.451715 -1.875575 3.702382 -2.072581 11.751529 -28.161469 1.811198 3.698965 -56.670369 -1.217386 9.498532 8.370455 -20.659220 6.492097 -12.240878 -11.623020 -1.815968 24.765591 6.644465 5.962932 57.651602 8.684559 15.251851 -8.746729 23.946571 0.700721 9.563772 6.990474 -5.888574 
-1.211406 0.583499 1.032927 -96.065928 -1.331283 82.492513 1.135110 0.088692 -10.133548 -4.162354 3.769023 -2.427476 1.962195 12.984381 -2.947173 0.000000 -0.000000 0.000000 -1.754868 -5.168461 17.314233 4.694601 5.092136 11.754085 3.633073 -3.198728 -15.170596 0.000000 -0.000000 0.000000 2.141547 6.898296 2.685123 -2.108059 -2.258565 6.952199 -1.457192 0.629293 -0.800263 2.878680 -1.231695 -1.723407 3.570373 -1.943774 11.773574 -28.040222 2.266552 3.703202 -56.875170 -0.884363 9.341933 8.338239 -20.365028 6.694515 -12.476407 -11.707492 -1.640707 24.898668 6.414305 6.161795 57.792919 8.653459 15.304667 -8.649709 23.383790 0.694093 9.535425 6.875764 -5.541520 
-1.234223 0.579301 1.033174 -96.994428 -1.417039 83.082416 1.225313 0.675970 -9.301359 -4.638846 4.740277 -2.885711 1.898932 13.269521 -0.828245 0.000000 -0.000000 0.000000 -2.361898 -4.783649 17.421598 4.395723 5.295524 12.756187 4.597295 -2.557885 -14.396297 0.000000 -0.000000 0.000000 1.712573 6.936545 1.702650 -2.030016 -2.145581 6.910949 -1.361674 0.699756 -0.847322 3.085455 -1.015807 -1.617585 3.460126 -1.819422 11.815007 -27.879229 2.658761 3.736169 -56.962750 -0.714407 9.194953 8.389430 -19.929350 6.721428 -12.616991 -11.802548 -1.475048 25.107636 6.128385 6.309273 57.933204 8.635741 15.360768 -8.643900 22.718976 0.541171 9.445140 6.704906 -5.207675 
-1.257309 0.574243 1.035133 -97.581295 -1.641337 83.536972 1.092474 0.971771 -8.564720 -5.170602 5.432177 -2.663306 1.784600 13.484678 0.571851 0.000000 -0.000000 0.000000 -2.996479 -4.355299 17.231012 4.027020 5.192570 14.436349 5.648912 -2.184456 -13.293235 0.000000 -0.000000 0.000000 1.222646 6.878688 0.893552 -2.009236 -2.109051 6.874430 -1.333362 0.628060 -0.858665 3.202318 -0.840668 -1.571874 3.353143 -1.742022 11.744819 -27.556213 2.921576 3.684822 -57.071351 -0.737526 9.062255 8.508967 -19.356504 6.570903 -12.930030 -11.874091 -1.246555 25.225410 5.811431 6.304819 58.188026 8.473589 15.380972 -8.716514 22.110801 0.282443 9.494613 6.583497 -4.935003 
-1.280241 0.568552 1.038202 -97.866237 -1.916401 83.944297 0.613433 0.848631 -7.819825 -5.558116 5.463303 -2.307969 2.167215 13.377967 1.013563 0.000000 -0.000000 0.000000 -3.584397 -3.981890 16.466936 3.616322 4.866174 17.107160 6.704107 -1.981929 -11.795924 0.000000 -0.000000 0.000000 0.709915 6.735677 0.176105 -1.939692 -2.130726 6.994662 -1.381908 0.519797 -1.059039 3.172607 -0.775772 -1.507442 3.332792 -1.656564 11.617796 -27.231199 3.010053 3.561668 -57.078272 -0.787426 9.068825 8.648395 -18.973189 6.081403 -13.370169 -11.870593 -0.903901 25.312978 5.467028 6.188657 58.339375 7.950307 15.346972 -8.834454 21.894654 -0.228484 9.723970 6.597611 -4.677814 
-1.302804 0.562583 1.041527 -97.993846 -2.129909 84.256508 -0.105144 0.781774 -6.798729 -5.737221 5.034960 -2.366558 3.019546 13.284056 1.172530 0.000000 -0.000000 0.000000 -4.111656 -3.663275 15.117510 3.273062 4.178243 20.821701 7.691887 -1.868879 -9.717959 0.000000 -0.000000 0.000000 0.276133 6.411630 -0.414217 -1.815907 -2.118817 7.123670 -1.468870 0.377995 -1.284119 3.096459 -0.764616 -1.391983 3.309660 -1.464766 11.487940 -26.967136 3.027824 3.425650 -56.983988 -0.891478 9.196491 8.816217 -18.985581 5.442910 -13.721641 -11.845285 -0.533490 25.354845 5.204171 6.107880 58.332907 7.331451 15.405823 -8.973396 21.947056 -0.779127 10.001815 6.665773 -4.484365 
-1.324890 0.556755 1.044261 -98.006144 -2.199190 84.411650 -0.825642 0.826282 -5.451476 -5.736594 4.632644 -2.775499 4.020740 13.219990 1.223276 0.000000 -0.000000 0.000000 -4.586238 -3.375696 13.366716 3.015149 3.119018 25.338101 8.557008 -1.774134 -6.983181 0.000000 -0.000000 0.000000 -0.025079 5.894252 -0.807523 -1.621813 -2.042460 7.249512 -1.562846 0.246149 -1.521542 3.017701 -0.778022 -1.196836 3.257191 -1.233968 11.267114 -26.764966 2.963186 3.366522 -56.821036 -1.096001 9.333998 9.035225 -19.465868 4.774244 -13.992228 -11.826691 -0.158485 25.334322 4.993221 6.038698 58.220007 6.750841 15.469582 -9.157072 22.093189 -1.252284 10.341387 6.690332 -4.276444 
